<?xml version="1.0" encoding="UTF-8" standalone="no"?>
<svg
   width="24"
   height="24"
   viewBox="0 0 24 24"
   role="img"
   aria-label="folder icon"
   version="1.1"
   id="svg1"
   sodipodi:docname="PropsFile.svg"
   inkscape:version="1.4.2 (f4327f4, 2025-05-13)"
   xml:space="preserve"
   xmlns:inkscape="http://www.inkscape.org/namespaces/inkscape"
   xmlns:sodipodi="http://sodipodi.sourceforge.net/DTD/sodipodi-0.dtd"
   xmlns="http://www.w3.org/2000/svg"
   xmlns:svg="http://www.w3.org/2000/svg"><defs
     id="defs1" /><sodipodi:namedview
     id="namedview1"
     pagecolor="#505050"
     bordercolor="#eeeeee"
     borderopacity="1"
     inkscape:showpageshadow="0"
     inkscape:pageopacity="0"
     inkscape:pagecheckerboard="0"
     inkscape:deskcolor="#505050"
     inkscape:zoom="32"
     inkscape:cx="2"
     inkscape:cy="10.515625"
     inkscape:window-width="2560"
     inkscape:window-height="1369"
     inkscape:window-x="-8"
     inkscape:window-y="-8"
     inkscape:window-maximized="1"
     inkscape:current-layer="svg1" /><!-- background (transparent) --><!-- folder body (filled) --><path
     d="m 11.397101,3.5546602 h 5.654692 c 0.662742,0 1.2,0.5372583 1.2,1.1999999 V 19.24534 c 0,0.662742 -0.537258,1.2 -1.2,1.2 H 6.948207 c -0.662742,0 -1.2,-0.537258 -1.2,-1.2 V 8.3649754 Z"
     fill="#4b4d50"
     stroke="#dfe5e9"
     stroke-width="0.8"
     stroke-linejoin="round"
     filter="url(#glow)"
     id="path1"
     sodipodi:nodetypes="csssssscc"
     style="display:none;stroke-width:1;stroke-dasharray:none" /><path
     style="display:none;fill:none;fill-opacity:1;stroke:#dfe5e9;stroke-width:1;stroke-linecap:round;stroke-linejoin:round;stroke-dasharray:none;stroke-opacity:1"
     d="m 5.748207,8.3649754 5.648118,0.010562 7.76e-4,-4.8208776"
     id="path2"
     sodipodi:nodetypes="ccc" /><path
     id="rect5-7"
     style="display:inline;fill:#2b3f64;fill-opacity:1;stroke:#020715;stroke-width:2.2;stroke-linecap:round;stroke-linejoin:round;stroke-dasharray:none;stroke-opacity:1"
     d="m 17.191246,8.5683594 c -1.273286,0.4399263 -2.1875,1.6494356 -2.1875,3.0722656 0,1.378897 0.858329,2.557425 2.070312,3.029297 v 7.076172 c 0,0.626632 0.504228,1.130859 1.13086,1.130859 0.626632,0 1.130859,-0.504227 1.130859,-1.130859 v -7.041016 c 1.261721,-0.446241 2.166016,-1.649892 2.166016,-3.064453 0,-1.42283 -0.914214,-2.6323394 -2.1875,-3.0722656 v 3.0078126 c 0,0.626632 -0.474391,1.130859 -1.0625,1.130859 -0.58811,0 -1.060547,-0.504227 -1.060547,-1.130859 z"
     inkscape:label="dark-outline" /><path
     id="rect5"
     style="fill:#2b3f64;fill-opacity:1;stroke:#5287f1;stroke-linecap:round;stroke-linejoin:round;stroke-opacity:1"
     d="m 17.191246,8.5683594 c -1.273286,0.4399263 -2.1875,1.6494356 -2.1875,3.0722656 0,1.378897 0.858329,2.557425 2.070312,3.029297 v 7.076172 c 0,0.626632 0.504228,1.130859 1.13086,1.130859 0.626632,0 1.130859,-0.504227 1.130859,-1.130859 v -7.041016 c 1.261721,-0.446241 2.166016,-1.649892 2.166016,-3.064453 0,-1.42283 -0.914214,-2.6323394 -2.1875,-3.0722656 v 3.0078126 c 0,0.626632 -0.474391,1.130859 -1.0625,1.130859 -0.58811,0 -1.060547,-0.504227 -1.060547,-1.130859 z" /></svg>
