<?xml version="1.0" encoding="UTF-8" standalone="no"?>
<!-- Uploaded to: SVG Repo, www.svgrepo.com, Generator: SVG Repo Mixer Tools -->

<svg
   height="800px"
   width="800px"
   version="1.1"
   id="Capa_1"
   viewBox="0 0 525.325 525.325"
   xml:space="preserve"
   sodipodi:docname="local-variable-icon.svg"
   inkscape:version="1.4.2 (f4327f4, 2025-05-13)"
   xmlns:inkscape="http://www.inkscape.org/namespaces/inkscape"
   xmlns:sodipodi="http://sodipodi.sourceforge.net/DTD/sodipodi-0.dtd"
   xmlns="http://www.w3.org/2000/svg"
   xmlns:svg="http://www.w3.org/2000/svg"><defs
   id="defs1" /><sodipodi:namedview
   id="namedview1"
   pagecolor="#505050"
   bordercolor="#eeeeee"
   borderopacity="1"
   inkscape:showpageshadow="0"
   inkscape:pageopacity="0"
   inkscape:pagecheckerboard="0"
   inkscape:deskcolor="#505050"
   inkscape:zoom="0.72937499"
   inkscape:cx="-10.968295"
   inkscape:cy="324.25022"
   inkscape:window-width="2560"
   inkscape:window-height="1369"
   inkscape:window-x="-8"
   inkscape:window-y="-8"
   inkscape:window-maximized="1"
   inkscape:current-layer="g1" />
<g
   id="g1"
   transform="matrix(1.0007541,0,0,0.96334492,-0.19807395,9.6729914)">
	
<path
   id="path2"
   style="display:inline;fill:#25324d;fill-opacity:1;stroke-width:29.5991;stroke-linecap:round;stroke-linejoin:round"
   d="m 260.75301,67.293899 c 2.53494,-0.01096 208.64804,100.373741 209.93189,102.041701 1.28386,1.66796 13.68889,185.1791 12.4378,186.85802 -1.25108,1.67893 -192.35032,89.14865 -194.88525,89.15962 C 285.70252,445.36419 47.032102,317.7052 45.74825,316.03724 44.464397,314.36927 40.915914,146.38371 42.166999,144.70478 43.418085,143.02586 258.21808,67.304855 260.75301,67.293899 Z"
   sodipodi:nodetypes="sssssss" /><path
   style="display:inline;fill:#548af7;fill-opacity:1;stroke:#548af7;stroke-width:22.4948;stroke-dasharray:none;stroke-opacity:1"
   d="M 492.21854,157.82655 231.17488,55.725063 c -0.4362,-0.175851 -0.88154,-0.130175 -1.32687,-0.231803 -0.68742,-0.166715 -1.35655,-0.371112 -2.07138,-0.371112 -0.74222,0 -1.4205,0.204397 -2.12504,0.380248 -0.41793,0.10163 -0.83586,0.06509 -1.24351,0.222667 l -0.35284,0.139309 v 0 L 33.088194,132.17043 c -4.343724,1.70826 -6.515586,6.3112 -5.485607,10.73028 -0.250073,0.83586 -0.408795,1.70826 -0.408795,2.60806 v 176.08944 c 0,3.42451 1.893243,6.58068 4.910099,8.19644 L 293.15669,469.02334 c 0.42706,0.22267 0.88153,0.35284 1.32686,0.51042 0.23181,0.0833 0.45447,0.19526 0.69655,0.26035 0.77077,0.19527 1.55981,0.31516 2.34886,0.31516 0.78903,0 1.57808,-0.12104 2.34885,-0.31516 0.24094,-0.0651 0.4636,-0.18613 0.69655,-0.26035 0.44533,-0.15758 0.8998,-0.27861 1.32687,-0.51042 L 493.22112,355.45077 c 3.02598,-1.61462 4.91009,-4.77079 4.91009,-8.19644 V 171.16376 c 0,-0.89982 -0.16671,-1.76308 -0.4088,-2.60807 1.02086,-4.40881 -1.15101,-9.02202 -5.50387,-10.72914 z M 297.51982,255.95287 54.63096,143.67948 227.79605,74.344612 470.6849,169.3356 Z M 45.74825,160.03467 288.23745,272.11395 V 445.35324 L 45.74825,316.03724 Z M 479.55734,341.69336 306.80104,445.35324 V 272.1128 l 172.7563,-86.42315 z"
   id="path1"
   sodipodi:nodetypes="cccsccccccssccccsccccssccccccccccccccccc" /></g>
</svg>
